HIERARCHY
ROOT Hips
{
	OFFSET	0.000000	0.000000	0.000000
	CHANNELS 6 Xposition Yposition Zposition Zrotation Xrotation Yrotation
	JOINT LeftUpLeg
	{
		OFFSET	12.811937	-7.635976	0.557276
		CHANNELS 3 Zrotation Xrotation Yrotation
		JOINT LeftLeg
		{
			OFFSET	-0.429270	-42.206159	-1.204951
			CHANNELS 3 Zrotation Xrotation Yrotation
			JOINT LeftFoot
			{
				OFFSET	-2.112259	-42.464481	-3.973220
				CHANNELS 3 Zrotation Xrotation Yrotation
				JOINT LeftFootHeel
				{
					OFFSET	0.387196	-5.329707	-3.419729
					CHANNELS 3 Zrotation Xrotation Yrotation
					End Site
					{
						OFFSET	0.327567	-0.000003	16.505428
					}
				}
			}
		}
	}
	JOINT RightUpLeg
	{
		OFFSET	-12.811937	-7.635976	0.557276
		CHANNELS 3 Zrotation Xrotation Yrotation
		JOINT RightLeg
		{
			OFFSET	0.429270	-42.206159	-1.204951
			CHANNELS 3 Zrotation Xrotation Yrotation
			JOINT RightFoot
			{
				OFFSET	2.112259	-42.464481	-3.973220
				CHANNELS 3 Zrotation Xrotation Yrotation
				JOINT RightFootHeel
				{
					OFFSET	-0.387198	-5.329707	-3.419729
					CHANNELS 3 Zrotation Xrotation Yrotation
					End Site
					{
						OFFSET	-0.327566	-0.000003	16.505428
					}
				}
			}
		}
	}
	JOINT Spine
	{
		OFFSET	0.000000	13.731315	-1.007646
		CHANNELS 3 Zrotation Xrotation Yrotation
		JOINT Spine1
		{
			OFFSET	0.000000	12.091746	-0.604589
			CHANNELS 3 Zrotation Xrotation Yrotation
			JOINT LeftShoulder
			{
				OFFSET	5.746115	20.990027	-0.833816
				CHANNELS 3 Zrotation Xrotation Yrotation
				JOINT LeftArm
				{
					OFFSET	10.881538	-1.359258	0.219250
					CHANNELS 3 Zrotation Xrotation Yrotation
					JOINT LeftForeArm
					{
						OFFSET	4.390314	-31.537147	0.202818
						CHANNELS 3 Zrotation Xrotation Yrotation
						JOINT LeftHand
						{
							OFFSET	3.168650	-24.865023	5.373370
							CHANNELS 3 Zrotation Xrotation Yrotation
							End Site
							{
								OFFSET	1.457528	-10.806075	2.170267
							}
						}
					}
				}
			}
			JOINT RightShoulder
			{
				OFFSET	-5.746115	20.990027	-0.833816
				CHANNELS 3 Zrotation Xrotation Yrotation
				JOINT RightArm
				{
					OFFSET	-10.881538	-1.359258	0.219250
					CHANNELS 3 Zrotation Xrotation Yrotation
					JOINT RightForeArm
					{
						OFFSET	-4.390314	-31.537147	0.202818
						CHANNELS 3 Zrotation Xrotation Yrotation
						JOINT RightHand
						{
							OFFSET	-3.168650	-24.865023	5.373370
							CHANNELS 3 Zrotation Xrotation Yrotation
							End Site
							{
								OFFSET	-1.457528	-10.806075	2.170267
							}
						}
					}
				}
			}
			JOINT Neck
			{
				OFFSET	0.000000	27.075639	0.680489
				CHANNELS 3 Zrotation Xrotation Yrotation
				JOINT Head
				{
					OFFSET	0.000000	12.391287	1.239129
					CHANNELS 3 Zrotation Xrotation Yrotation
					End Site
					{
						OFFSET	0.000000	13.818691	-0.105853
					}
				}
			}
		}
	}
}
MOTION
Frames:    11
Frame Time: 0.016667
0.000000	100.447908	0.000000	0.319657	0.956692	-2.338027	-1.121000	-0.863413	2.599890	1.088742	0.719133	1.324259	-1.957275	-0.368618	-3.014032	0.	0.	0.	-0.458975	-2.258314	3.526299	1.274327	-1.481554	1.324363	-0.782448	3.147992	0.973620	0.	0.	0.	1.242353	1.488132	-0.572530	0.405967	0.555787	-5.278862	0.531144	-0.000209	1.802082	0.641966	-2.653949	-4.710268	-2.049665	0.248256	0.019996	1.952121	0.069650	-5.756507	-0.772768	0.933786	3.140930	-1.648913	-4.706662	10.116461	-0.024305	2.376220	3.290236	-0.548207	-0.764080	-0.897515	-4.160524	5.836591	4.066732	-6.456243	3.339968	4.354652	
-0.000497	100.448421	-0.013871	0.325935	0.962698	-2.254613	-1.123777	-0.867680	2.552062	1.084662	0.718307	1.288526	-1.957275	-0.368618	-3.014031	0.	0.	0.	-0.468306	-2.263893	3.442667	1.277948	-1.477339	1.347307	-0.796551	3.143842	0.949607	0.	0.	0.	1.238361	1.479670	-0.559636	0.404820	0.548427	-5.277413	0.513190	-0.011677	1.814719	0.647764	-2.628684	-4.695103	-2.066954	0.238412	0.179999	1.955749	0.073740	-5.861889	-0.776569	0.922728	3.147284	-1.640510	-4.674836	10.104245	-0.055516	2.368685	3.286028	-0.545211	-0.773417	-0.887030	-4.137508	5.803635	4.081866	-6.440256	3.348036	4.327866	
-0.020321	100.449885	0.007435	0.342293	0.980168	-2.016107	-1.134060	-0.880439	2.385300	1.079795	0.717142	1.282925	-1.961014	-0.366672	-3.080657	0.	0.	0.	-0.463062	-2.174940	3.446284	1.242254	-1.596762	1.176246	-0.830552	3.154570	0.880707	0.	0.	0.	1.216079	1.484558	-0.537925	0.412674	0.500357	-5.273094	0.467088	-0.043194	1.864493	0.661913	-2.564049	-4.655328	-2.068335	0.217004	0.093801	1.891233	0.085610	-5.632107	-0.789402	0.889592	3.179930	-1.618478	-4.585799	10.064486	-0.135965	2.348371	3.269017	-0.547543	-0.759882	-0.867561	-4.074555	5.694283	4.161507	-6.354083	3.378640	4.224988	
-0.025663	100.450049	0.013649	0.347021	0.985651	-1.942380	-1.130123	-0.884362	2.389606	1.072046	0.715922	1.222774	-1.962017	-0.366148	-3.098576	0.	0.	0.	-0.464647	-2.155303	3.425789	1.235871	-1.617427	1.134911	-0.838924	3.148529	0.873071	0.	0.	0.	1.209258	1.485943	-0.530879	0.415660	0.485942	-5.277679	0.451221	-0.054451	1.888757	0.667336	-2.543783	-4.641873	-2.072394	0.204248	0.105122	1.865750	0.088035	-5.606426	-0.794396	0.880023	3.197520	-1.611134	-4.559521	10.049623	-0.161102	2.342158	3.265253	-0.550467	-0.748913	-0.860964	-4.053448	5.661044	4.191094	-6.317447	3.377036	4.194220	
-0.035952	100.452336	0.036799	0.367181	0.993983	-1.809570	-1.142396	-0.890263	2.334495	1.065043	0.714639	1.179009	-1.963936	-0.365152	-3.132875	0.	0.	0.	-0.482367	-2.114065	3.387347	1.230238	-1.648284	1.069917	-0.856732	3.126626	0.851101	0.	0.	0.	1.156779	1.484383	-0.522988	0.449501	0.464494	-5.266922	0.417489	-0.077219	1.929928	0.680381	-2.504680	-4.608287	-2.078532	0.167429	0.116601	1.817439	0.088463	-5.562094	-0.810289	0.859947	3.225084	-1.589532	-4.507644	10.023800	-0.214868	2.330562	3.272944	-0.554943	-0.726820	-0.852306	-3.995914	5.579144	4.207293	-6.232737	3.359263	4.180104	
-0.048236	100.461512	0.065869	0.414107	0.996531	-1.701392	-1.182025	-0.891439	2.296811	1.058085	0.713223	1.129160	-1.965131	-0.364538	-3.154260	0.	0.	0.	-0.527670	-2.069403	3.366629	1.223663	-1.674183	0.986243	-0.863995	3.102875	0.848945	0.	0.	0.	1.070794	1.485757	-0.504720	0.488768	0.445098	-5.231315	0.386705	-0.101367	1.942646	0.692746	-2.465690	-4.568129	-2.107117	0.106152	0.113107	1.812878	0.076464	-5.525217	-0.819749	0.840488	3.229295	-1.607290	-4.455058	10.000684	-0.237130	2.312731	3.294877	-0.553091	-0.737373	-0.826427	-3.924596	5.522656	4.243765	-6.136220	3.297268	4.132989	
-0.059462	100.470193	0.095761	0.457557	0.999220	-1.600188	-1.219400	-0.892432	2.254574	1.051240	0.711616	1.069495	-1.965131	-0.364538	-3.154259	0.	0.	0.	-0.570046	-2.025934	3.346709	1.218234	-1.698729	0.908747	-0.868457	3.079725	0.845202	0.	0.	0.	0.992222	1.486825	-0.490222	0.523057	0.426873	-5.190823	0.359228	-0.127885	1.944611	0.679188	-2.434782	-4.527534	-2.112573	0.055198	0.095907	1.831164	0.069556	-5.493479	-0.828874	0.823407	3.232941	-1.634939	-4.405578	9.980514	-0.246331	2.293376	3.310702	-0.554320	-0.758528	-0.777189	-3.811443	5.511472	4.290372	-6.046636	3.182562	4.072577	
-0.066819	100.477567	0.097576	0.491719	0.958234	-1.501774	-1.250399	-0.849478	2.201343	1.046357	0.710275	1.031410	-1.965506	-0.364342	-3.160969	0.	0.	0.	-0.605482	-1.951443	3.307445	1.212370	-1.727411	0.851036	-0.869557	3.074003	0.844284	0.	0.	0.	0.925942	1.531327	-0.485929	0.553335	0.411026	-5.160998	0.332131	-0.152837	1.959171	0.643396	-2.416048	-4.487253	-2.084010	0.019307	0.057048	1.849466	0.072418	-5.474030	-0.841013	0.804477	3.252320	-1.657932	-4.357446	9.961016	-0.255781	2.274981	3.328489	-0.559895	-0.764762	-0.729210	-3.729871	5.471722	4.367078	-5.897314	3.089698	4.004148	
-0.073772	100.484185	0.070716	0.520486	0.904825	-1.410708	-1.280365	-0.794468	2.121716	1.046497	0.709992	1.050256	-1.967157	-0.363500	-3.190522	0.	0.	0.	-0.634701	-1.896932	3.227473	1.208054	-1.728277	0.840144	-0.869557	3.074003	0.844284	0.	0.	0.	0.869291	1.588054	-0.488944	0.581275	0.401041	-5.192982	0.306261	-0.179190	2.041542	0.654365	-2.421327	-4.443137	-2.092782	0.002485	-0.004861	1.865794	0.088884	-5.471801	-0.859594	0.779362	3.342278	-1.674405	-4.310843	9.935946	-0.268993	2.257749	3.361425	-0.569399	-0.739208	-0.705150	-3.681792	5.399157	4.526911	-5.699371	3.019557	3.920921	
-0.075760	100.491006	0.072020	0.551030	0.896746	-1.335056	-1.328965	-0.775917	2.076442	1.064353	0.699482	1.039878	-1.968293	-0.362925	-3.210873	0.	0.	0.	-0.670971	-1.862883	3.183711	1.208682	-1.754922	0.808257	-0.869557	3.074003	0.844283	0.	0.	0.	0.818043	1.598691	-0.496059	0.601171	0.389145	-5.158924	0.282252	-0.206981	2.068983	0.682301	-2.432229	-4.416777	-2.111781	-0.005413	-0.056140	1.884941	0.115423	-5.486985	-0.879894	0.754034	3.381828	-1.684929	-4.261508	9.908383	-0.285066	2.242395	3.405537	-0.574932	-0.715129	-0.694864	-3.618601	5.335790	4.647490	-5.490495	2.944045	3.815380	
-0.071955	100.497207	0.091306	0.579753	0.900194	-1.268474	-1.378680	-0.767308	2.043279	1.084527	0.687002	1.005879	-1.968294	-0.362925	-3.210872	0.	0.	0.	-0.705459	-1.833480	3.157819	1.203295	-1.776040	0.770177	-0.863569	3.061368	0.841327	0.	0.	0.	0.772695	1.597284	-0.506124	0.616919	0.378949	-5.123870	0.254846	-0.255063	2.081706	0.716515	-2.422629	-4.390105	-2.127104	-0.012560	-0.094713	1.902614	0.145348	-5.508272	-0.904799	0.708724	3.411925	-1.688730	-4.194477	9.905060	-0.298814	2.228243	3.440712	-0.579554	-0.692733	-0.686810	-3.544712	5.298851	4.741529	-5.292906	2.836856	3.722080	
